<svg xmlns="http://www.w3.org/2000/svg" width="1024" height="1024" viewBox="0 0 1024 1024">
<g>
<path d="M 961.50 1017.98 C949.59,1017.60 939.28,1016.81 937.68,1016.15 C936.14,1015.52 932.97,1015.00 930.64,1015.00 C928.31,1015.00 922.15,1014.06 916.95,1012.92 C911.75,1011.77 906.69,1010.67 905.70,1010.46 C904.71,1010.26 901.34,1009.25 898.20,1008.22 C895.07,1007.18 889.12,1005.28 885.00,1004.00 C880.88,1002.71 877.07,1001.28 876.55,1000.83 C876.03,1000.37 874.90,999.99 874.05,999.97 C873.20,999.95 869.81,998.60 866.53,996.97 C863.24,995.34 859.98,994.00 859.28,994.00 C858.57,994.00 858.00,993.55 858.00,993.00 C858.00,992.45 857.38,992.00 856.62,992.00 C855.86,992.00 854.69,991.33 854.01,990.51 C853.33,989.69 852.43,989.24 852.00,989.50 C851.16,990.02 839.04,983.59 833.81,979.85 C830.63,977.57 828.36,976.23 822.86,973.34 C821.40,972.58 819.66,971.29 818.98,970.48 C818.31,969.67 817.33,969.00 816.81,969.00 C815.81,969.00 809.18,964.27 807.50,962.36 C806.95,961.73 802.67,958.20 798.00,954.51 C793.33,950.81 788.83,946.71 788.01,945.39 C787.20,944.07 785.78,942.75 784.86,942.45 C783.94,942.16 782.93,941.27 782.62,940.46 C782.32,939.66 781.55,939.00 780.92,939.00 C779.51,939.00 757.88,917.30 752.51,910.50 C750.34,907.75 748.26,905.28 747.88,905.00 C747.51,904.72 745.11,901.81 742.55,898.51 C739.99,895.22 737.25,892.16 736.45,891.71 C735.65,891.27 735.00,890.44 735.00,889.88 C735.00,888.65 714.51,868.05 707.72,862.44 C705.09,860.27 701.72,857.96 700.22,857.30 C698.14,856.37 663.56,856.08 553.50,856.04 C463.48,856.01 407.25,855.62 403.50,855.00 C400.20,854.45 393.15,853.76 387.83,853.46 C377.84,852.90 376.58,852.73 369.00,851.02 C366.52,850.46 359.79,849.54 354.03,848.98 C348.27,848.42 343.12,847.52 342.58,846.98 C342.04,846.44 339.78,845.98 337.55,845.96 C335.32,845.95 330.80,845.29 327.50,844.52 C312.27,840.92 308.06,839.86 302.00,838.05 C298.42,836.98 290.55,834.69 284.50,832.97 C278.45,831.24 271.17,828.74 268.31,827.41 C265.46,826.09 262.46,825.00 261.64,825.00 C260.14,825.00 248.03,820.35 242.50,817.65 C240.85,816.84 235.90,814.50 231.50,812.45 C227.10,810.39 221.70,807.49 219.50,805.99 C214.41,802.53 206.74,798.53 205.72,798.81 C205.29,798.92 204.68,798.34 204.37,797.51 C204.05,796.68 203.23,796.00 202.54,796.00 C201.86,796.00 199.44,794.65 197.16,793.00 C194.88,791.35 192.63,790.00 192.15,790.00 C191.67,790.00 189.31,788.43 186.89,786.51 C184.48,784.59 182.08,783.02 181.56,783.01 C181.05,783.00 178.57,781.31 176.06,779.23 C169.73,774.01 164.26,770.00 163.46,770.00 C162.52,770.00 155.43,764.46 149.47,759.06 C146.71,756.55 142.44,752.83 139.97,750.80 C135.39,747.01 115.83,727.45 107.67,718.50 C105.16,715.75 100.61,710.80 97.55,707.50 C94.50,704.20 91.75,700.71 91.43,699.75 C91.12,698.79 90.49,698.00 90.03,698.00 C89.20,698.00 82.88,689.28 80.00,684.16 C79.18,682.70 78.28,681.28 78.00,681.00 C77.72,680.72 76.96,679.60 76.30,678.50 C74.45,675.41 66.70,663.04 64.78,660.12 C63.84,658.68 62.19,655.69 61.11,653.48 C60.04,651.26 58.22,648.60 57.08,647.57 C55.93,646.54 55.00,645.19 55.00,644.57 C55.00,643.96 52.76,639.08 50.02,633.73 C47.28,628.38 45.32,624.00 45.67,624.00 C46.02,624.00 45.66,623.21 44.87,622.25 C44.09,621.29 42.33,618.14 40.97,615.27 C39.61,612.39 38.23,610.02 37.91,610.02 C37.59,610.01 36.75,608.09 36.05,605.75 C34.49,600.55 33.30,597.60 30.87,592.86 C29.84,590.86 29.00,588.49 29.00,587.58 C29.00,586.67 28.37,584.93 27.60,583.71 C26.83,582.50 25.89,579.92 25.52,578.00 C25.15,576.08 24.20,573.06 23.40,571.30 C21.63,567.39 16.42,550.67 14.42,542.50 C13.61,539.20 12.48,534.70 11.91,532.50 C9.38,522.75 4.72,493.38 2.72,474.50 C1.71,465.01 1.54,455.97 2.07,441.00 C2.48,429.73 3.08,411.50 3.42,400.50 C4.28,372.23 7.87,346.72 13.98,325.50 C15.73,319.45 17.38,313.38 17.65,312.00 C17.93,310.62 18.53,308.60 19.00,307.50 C20.08,304.95 23.80,293.75 25.34,288.39 C25.99,286.13 27.02,283.65 27.63,282.89 C28.23,282.13 29.02,279.61 29.37,277.29 C29.72,274.98 31.12,271.00 32.47,268.45 C33.83,265.90 34.86,263.52 34.77,263.16 C34.67,262.80 35.68,260.48 37.00,258.00 C38.32,255.52 39.30,253.13 39.18,252.69 C39.06,252.24 39.62,250.67 40.43,249.19 C41.25,247.71 43.08,244.02 44.51,241.00 C45.94,237.98 47.97,234.15 49.01,232.50 C50.89,229.51 54.68,222.85 60.89,211.59 C64.19,205.61 75.17,188.73 78.95,183.84 C80.08,182.38 81.00,180.69 81.00,180.09 C81.00,179.49 81.46,179.00 82.02,179.00 C82.59,179.00 83.46,177.99 83.96,176.75 C84.45,175.51 87.03,171.85 89.68,168.62 C92.33,165.38 94.98,161.91 95.57,160.90 C96.16,159.90 98.04,157.59 99.74,155.79 C101.44,153.98 105.51,149.35 108.78,145.50 C118.15,134.47 137.78,114.96 146.00,108.52 C150.12,105.28 154.85,101.38 156.50,99.85 C160.34,96.29 167.03,90.79 169.10,89.50 C169.98,88.95 172.68,87.16 175.10,85.52 C177.52,83.88 180.22,82.08 181.11,81.52 C185.40,78.80 191.70,74.32 193.44,72.75 C194.50,71.79 195.79,71.00 196.28,71.00 C196.78,71.00 198.39,70.15 199.85,69.11 C201.31,68.07 207.23,64.79 213.00,61.80 C218.77,58.82 225.30,55.35 227.50,54.09 C236.41,48.99 259.81,38.16 266.50,36.04 C268.70,35.35 272.30,33.96 274.50,32.96 C277.90,31.42 292.74,26.60 310.00,21.42 C312.48,20.68 317.88,19.36 322.00,18.50 C326.12,17.63 330.24,16.51 331.13,16.02 C332.03,15.53 336.53,14.62 341.13,14.01 C345.74,13.40 351.08,12.45 353.00,11.92 C354.92,11.38 364.60,10.27 374.50,9.45 C384.40,8.63 397.59,7.29 403.80,6.48 C413.55,5.20 455.31,5.00 707.19,5.00 C934.47,5.00 1000.17,5.27 1003.35,6.22 C1009.47,8.06 1018.80,18.33 1019.50,24.00 C1019.60,24.83 1020.26,27.99 1020.95,31.04 C1023.29,41.24 1020.75,113.87 1017.87,119.25 C1017.21,120.47 1015.88,124.85 1014.90,128.98 C1012.13,140.68 1006.52,155.85 1001.79,164.46 C1001.20,165.54 998.73,170.27 996.31,174.96 C993.89,179.66 991.37,183.96 990.71,184.52 C990.04,185.09 989.05,186.25 988.50,187.11 C982.60,196.34 977.28,203.45 972.85,208.07 C969.91,211.13 965.47,216.02 963.00,218.93 C960.53,221.84 958.05,224.61 957.50,225.08 C950.85,230.86 942.94,237.00 942.16,237.00 C941.61,237.00 941.02,237.36 940.83,237.81 C940.19,239.37 929.30,247.00 927.71,247.00 C926.82,247.00 925.74,247.56 925.30,248.25 C924.86,248.94 923.15,250.31 921.50,251.29 C916.97,254.00 900.19,262.00 899.06,262.00 C898.51,262.00 895.40,263.35 892.16,265.00 C888.91,266.65 885.55,268.00 884.69,268.00 C883.82,268.00 882.88,268.39 882.58,268.87 C882.29,269.34 880.58,270.00 878.77,270.34 C876.97,270.67 872.12,271.89 868.00,273.04 C863.88,274.19 858.78,275.35 856.67,275.62 C854.57,275.89 851.69,276.55 850.28,277.08 C844.07,279.45 806.22,280.08 673.50,280.04 C597.05,280.02 515.60,279.90 492.50,279.79 C469.39,279.67 450.00,279.88 449.40,280.25 C448.80,280.63 444.07,281.21 438.90,281.55 C433.73,281.89 427.70,282.54 425.50,282.99 C420.73,283.97 404.34,288.71 401.50,289.94 C400.40,290.41 397.92,291.36 396.00,292.04 C394.08,292.72 389.69,294.56 386.25,296.14 C382.81,297.71 379.75,299.00 379.45,299.00 C378.85,299.00 364.40,308.54 359.41,312.22 C354.86,315.58 345.19,323.96 340.90,328.25 C338.84,330.31 336.78,332.02 336.33,332.05 C335.63,332.10 328.77,340.84 325.50,345.86 C324.95,346.70 324.15,347.87 323.73,348.45 C319.72,353.96 317.90,356.77 317.38,358.25 C317.04,359.21 316.47,360.00 316.11,360.00 C315.48,360.00 313.11,364.37 309.35,372.50 C308.33,374.70 307.10,376.79 306.62,377.14 C306.14,377.49 306.05,378.26 306.41,378.86 C306.78,379.46 306.43,380.97 305.64,382.22 C304.85,383.47 303.88,386.08 303.50,388.00 C303.12,389.92 302.17,392.50 301.40,393.71 C300.63,394.93 300.00,397.63 299.99,399.71 C299.99,401.80 299.00,407.33 297.79,412.00 C294.73,423.89 294.77,446.38 297.88,456.00 C299.03,459.58 299.98,463.79 299.99,465.37 C300.00,468.18 302.11,475.57 304.60,481.50 C308.72,491.33 309.94,493.85 310.87,494.42 C311.45,494.78 311.69,495.64 311.42,496.35 C310.98,497.48 314.63,503.42 324.73,518.00 C332.97,529.91 357.34,551.72 370.35,558.84 C373.57,560.60 378.15,563.38 380.53,565.02 C382.91,566.66 385.54,568.00 386.37,568.00 C387.20,568.00 388.16,568.45 388.50,569.00 C388.84,569.55 390.22,570.00 391.56,570.00 C392.90,570.00 394.00,570.45 394.00,571.00 C394.00,571.55 394.87,572.00 395.94,572.00 C397.01,572.00 398.13,572.40 398.43,572.88 C398.73,573.36 399.99,573.99 401.24,574.26 C402.48,574.53 408.00,575.93 413.50,577.35 C419.00,578.78 426.74,580.40 430.70,580.96 C438.21,582.02 698.21,582.61 699.89,581.57 C700.38,581.27 722.94,580.99 750.04,580.96 C779.79,580.92 793.08,580.90 806.28,581.99 C817.09,582.89 827.83,584.53 847.50,587.52 C859.93,589.41 875.80,593.55 883.50,596.91 C884.60,597.40 887.75,598.59 890.50,599.57 C895.21,601.25 903.68,605.04 907.00,606.95 C909.87,608.61 922.10,614.00 922.99,614.00 C923.48,614.00 924.47,614.81 925.19,615.80 C925.91,616.79 928.62,618.77 931.20,620.20 C935.94,622.82 940.07,625.94 949.13,633.75 C951.85,636.09 954.39,638.01 954.78,638.01 C955.81,638.03 967.93,649.91 971.50,654.39 C973.15,656.46 975.19,658.90 976.04,659.83 C976.89,660.75 978.91,663.48 980.54,665.91 C982.17,668.33 984.17,671.31 985.00,672.54 C985.83,673.76 987.70,676.28 989.16,678.13 C993.15,683.18 1003.41,701.87 1005.01,707.00 C1005.78,709.47 1006.68,711.72 1007.01,712.00 C1007.33,712.28 1008.18,714.53 1008.89,717.00 C1009.61,719.47 1010.77,722.85 1011.47,724.50 C1013.44,729.11 1015.00,735.41 1015.00,738.73 C1015.00,740.38 1015.90,745.33 1016.99,749.73 C1019.79,760.97 1021.04,788.81 1020.75,833.00 C1020.61,853.08 1020.64,895.60 1020.80,927.50 C1020.98,961.83 1020.71,987.76 1020.14,991.03 C1018.33,1001.40 1012.19,1010.30 1003.94,1014.51 C996.39,1018.37 990.01,1018.89 961.50,1017.98 ZM 841.45 981.79 C846.90,985.33 848.00,985.65 848.00,983.67 C848.00,982.93 845.51,981.03 842.46,979.44 C839.42,977.84 836.27,975.54 835.47,974.32 C834.66,973.07 832.51,971.81 830.60,971.45 C828.49,971.06 827.00,970.12 826.71,968.98 C826.44,967.98 824.26,966.16 821.86,964.93 C819.46,963.71 815.05,960.52 812.05,957.85 C809.05,955.18 806.17,953.00 805.65,953.00 C805.12,953.00 803.04,951.31 801.01,949.25 C798.99,947.19 794.00,942.58 789.93,939.00 C785.86,935.42 779.69,929.69 776.22,926.25 C772.75,922.81 769.59,919.99 769.21,919.98 C768.82,919.97 766.25,917.24 763.50,913.91 C754.34,902.83 744.70,891.52 742.59,889.40 C740.45,887.24 738.51,884.99 727.70,872.13 C724.29,868.07 721.05,864.36 720.50,863.89 C712.74,857.16 706.07,852.54 699.96,849.67 C695.86,847.74 690.92,844.49 689.00,842.46 C687.08,840.42 681.22,835.58 676.00,831.71 C670.78,827.84 663.80,822.36 660.50,819.53 C657.20,816.71 653.38,813.65 652.00,812.74 C650.62,811.84 645.67,808.47 641.00,805.26 C618.60,789.89 608.23,783.13 603.00,780.48 C601.08,779.51 596.93,776.97 593.79,774.85 C590.65,772.72 587.05,770.55 585.79,770.01 C584.53,769.48 581.03,767.48 578.00,765.56 C574.97,763.64 570.96,761.37 569.09,760.52 C566.39,759.29 542.76,746.50 518.23,732.99 C516.73,732.17 513.13,730.03 510.23,728.24 C507.34,726.46 504.57,725.00 504.08,725.00 C502.98,725.00 486.41,716.35 483.00,713.99 C481.62,713.04 479.54,711.97 478.37,711.60 C477.20,711.24 474.95,709.83 473.37,708.47 C471.79,707.11 469.98,706.00 469.35,706.00 C468.72,706.00 466.91,704.54 465.33,702.75 C463.74,700.96 460.57,698.27 458.26,696.76 C455.96,695.25 453.07,692.67 451.85,691.01 C450.62,689.34 448.70,688.00 447.54,688.00 C446.40,688.00 443.34,686.31 440.75,684.25 C438.16,682.19 434.18,679.15 431.91,677.50 C429.64,675.85 426.45,673.27 424.82,671.76 C423.19,670.25 419.41,667.38 416.40,665.39 C413.40,663.40 410.49,660.91 409.93,659.86 C409.36,658.81 404.88,653.95 399.95,649.06 C395.03,644.17 391.00,639.52 391.00,638.72 C391.00,637.93 389.65,635.58 388.00,633.50 C386.35,631.42 385.00,628.94 385.00,627.98 C385.00,627.03 384.33,625.68 383.50,625.00 C382.67,624.32 382.00,622.71 382.00,621.44 C382.00,620.16 381.60,618.87 381.11,618.57 C379.64,617.66 377.79,620.76 378.48,622.95 C378.84,624.08 378.76,625.00 378.31,625.00 C377.04,625.00 375.27,621.72 374.01,617.02 C373.26,614.27 372.18,612.60 370.93,612.27 C368.42,611.62 368.43,610.00 370.94,610.00 C372.01,610.00 373.18,609.52 373.54,608.93 C373.91,608.34 375.17,607.44 376.35,606.93 C377.96,606.23 377.49,606.13 374.49,606.54 C371.31,606.98 370.02,606.66 368.24,605.01 C367.01,603.86 366.00,602.22 366.00,601.37 C366.00,600.51 365.14,598.60 364.09,597.12 C361.70,593.77 358.68,582.63 360.03,582.17 C360.56,581.98 361.00,581.12 361.00,580.25 C361.00,575.04 368.52,573.30 372.49,577.59 C375.02,580.32 377.70,580.27 380.03,577.46 C380.70,576.66 382.02,576.00 382.97,576.00 C385.24,576.00 390.82,578.82 393.15,581.15 C394.17,582.17 395.49,583.00 396.09,583.00 C396.69,583.00 398.33,583.90 399.73,585.00 C401.13,586.10 403.35,587.00 404.67,587.00 C405.99,587.00 408.74,587.70 410.78,588.55 C417.73,591.46 448.98,594.09 451.51,591.99 C452.28,591.35 453.71,591.08 454.70,591.39 C458.24,592.48 464.43,592.89 465.46,592.09 C467.83,590.25 476.61,589.97 548.39,589.50 C589.70,589.22 637.90,588.77 655.50,588.50 C711.48,587.63 813.33,587.86 816.50,588.86 C820.76,590.21 842.62,592.35 843.92,591.55 C844.51,591.18 845.00,590.56 845.00,590.16 C845.00,589.30 830.39,586.73 824.00,586.47 C821.53,586.36 814.55,585.51 808.50,584.57 C798.69,583.04 791.84,582.93 745.00,583.56 C663.24,584.65 436.77,584.21 428.50,582.94 C421.09,581.80 415.00,580.38 411.20,578.90 C409.94,578.40 408.22,578.00 407.38,578.00 C403.82,578.00 383.67,569.17 373.50,563.15 C357.24,553.54 349.09,547.12 336.21,533.79 C328.69,526.01 317.00,511.96 317.00,510.71 C317.00,510.44 315.20,507.53 313.00,504.24 C310.80,500.94 309.00,497.61 309.00,496.82 C309.00,496.04 308.57,494.97 308.04,494.44 C306.51,492.91 301.00,478.93 301.00,476.58 C301.00,475.41 300.31,473.46 299.47,472.25 C298.62,471.05 297.51,467.24 297.00,463.78 C296.48,460.33 295.56,455.02 294.95,452.00 C292.87,441.79 292.68,424.17 294.56,417.50 C295.50,414.20 296.58,408.35 296.96,404.50 C297.34,400.65 298.36,396.15 299.21,394.50 C300.06,392.85 301.09,389.92 301.49,388.00 C301.89,386.08 303.30,382.12 304.61,379.22 C305.93,376.32 307.00,373.31 307.00,372.53 C307.00,371.75 307.45,370.84 308.00,370.50 C308.55,370.16 309.00,369.09 309.00,368.13 C309.00,366.31 317.22,353.78 326.56,341.38 C338.94,324.92 364.99,303.84 384.00,294.89 C388.67,292.68 393.28,290.46 394.24,289.94 C395.19,289.42 396.79,289.00 397.79,289.00 C398.78,289.00 400.03,288.58 400.55,288.06 C401.07,287.54 405.33,286.15 410.00,284.97 C414.67,283.80 419.40,282.45 420.50,281.97 C421.60,281.49 424.52,280.91 427.00,280.67 C429.48,280.43 435.77,279.68 441.00,279.00 C448.18,278.07 497.95,277.74 645.00,277.62 C805.71,277.50 840.19,277.24 843.50,276.12 C845.70,275.37 851.78,273.94 857.00,272.94 C871.04,270.23 880.31,267.57 880.80,266.09 C881.51,263.98 871.35,265.57 855.50,270.05 C853.85,270.51 847.55,271.64 841.50,272.55 C829.24,274.40 814.51,274.47 672.00,273.36 C565.35,272.53 537.15,271.50 528.61,268.10 C527.02,267.46 522.97,267.07 519.61,267.22 C513.61,267.50 513.49,267.45 513.18,264.75 C513.00,263.18 512.25,262.00 511.43,262.00 C508.64,262.00 509.69,255.30 513.04,251.80 C515.95,248.76 516.06,248.30 515.79,241.06 C515.54,234.44 515.23,233.38 513.36,232.56 C512.18,232.04 510.78,230.20 510.25,228.45 C509.46,225.90 509.63,224.83 511.12,222.89 C512.13,221.58 512.98,219.60 513.01,218.50 C513.04,217.40 513.71,215.38 514.50,214.00 C516.28,210.89 516.40,206.58 514.75,205.22 C514.06,204.65 512.38,204.04 511.00,203.85 L 508.50 203.50 L 507.97 175.00 C507.59,154.39 507.76,146.17 508.59,145.31 C509.26,144.62 510.10,144.50 510.62,145.02 C511.15,145.55 512.12,145.55 512.97,145.02 C514.21,144.25 514.16,143.83 512.61,142.12 C510.55,139.85 511.20,138.00 514.06,138.00 C515.47,138.00 516.00,137.31 516.00,135.48 C516.00,133.47 515.38,132.83 513.02,132.35 C508.29,131.41 507.40,129.51 510.43,126.88 C513.33,124.35 513.79,120.43 511.53,117.44 C509.10,114.22 509.65,110.39 512.87,108.09 C515.41,106.28 515.82,105.24 516.44,98.96 C517.27,90.46 516.27,88.53 511.40,89.32 C509.45,89.64 507.40,89.27 506.11,88.36 C504.22,87.04 504.00,85.91 504.00,77.57 C504.00,70.12 504.33,67.97 505.65,66.87 C506.56,66.12 507.46,65.61 507.65,65.75 C507.84,65.89 508.40,66.00 508.89,66.00 C512.27,66.00 510.22,49.88 506.33,45.82 L 503.71 43.09 L 506.61 41.94 C508.20,41.30 510.17,40.45 511.00,40.04 C512.86,39.11 513.54,35.14 512.08,33.68 C511.49,33.09 511.00,31.79 511.00,30.80 C511.00,29.32 511.85,29.00 515.75,28.98 C521.01,28.95 529.00,25.83 529.00,23.79 C529.00,21.21 523.37,19.82 515.26,20.39 C510.99,20.70 506.15,20.97 504.50,21.00 C501.37,21.06 497.00,19.23 497.00,17.87 C497.00,16.26 505.43,14.85 511.41,15.47 C521.67,16.52 528.19,16.47 535.50,15.26 C544.50,13.78 625.80,12.17 725.50,11.51 C817.04,10.90 892.26,9.93 891.69,9.36 C891.13,8.80 774.39,8.10 591.00,7.56 C442.48,7.12 414.07,7.47 391.00,10.02 C385.77,10.59 376.55,11.44 370.50,11.89 C360.45,12.64 349.67,14.28 336.50,17.07 C322.98,19.92 315.12,21.86 313.40,22.77 C312.35,23.32 309.50,24.10 307.05,24.51 C304.60,24.91 300.63,26.09 298.22,27.12 C295.81,28.15 292.55,29.00 290.98,29.00 C289.40,29.00 287.88,29.39 287.58,29.86 C287.29,30.34 284.90,31.31 282.28,32.02 C279.65,32.73 277.05,33.63 276.50,34.02 C275.95,34.41 272.80,35.71 269.50,36.89 C252.33,43.07 206.93,65.93 193.92,74.95 C188.20,78.91 176.57,86.92 170.65,90.97 C161.14,97.47 135.96,119.36 124.45,131.13 C109.56,146.36 86.22,173.86 86.06,176.36 C86.03,176.83 84.27,179.31 82.15,181.86 C80.03,184.41 77.71,187.61 76.99,188.97 C76.28,190.33 72.91,195.73 69.51,200.97 C66.11,206.21 60.93,215.00 58.00,220.50 C55.07,226.00 51.41,232.30 49.87,234.50 C48.33,236.70 45.44,242.55 43.46,247.50 C41.47,252.45 38.92,258.30 37.80,260.50 C34.83,266.29 34.59,266.89 32.59,273.50 C31.59,276.80 30.22,280.85 29.54,282.50 C28.19,285.80 20.36,308.73 18.97,313.50 C18.20,316.11 16.80,321.31 12.93,336.00 C10.70,344.48 7.07,370.58 7.03,378.50 C7.01,382.35 6.58,387.08 6.08,389.00 C3.91,397.35 3.06,467.54 5.01,477.00 C5.64,480.02 6.51,487.00 6.96,492.50 C7.41,498.00 8.33,504.52 9.02,507.00 C9.70,509.48 10.61,514.20 11.04,517.50 C11.47,520.80 12.36,525.53 13.01,528.00 C13.67,530.47 15.01,536.10 16.00,540.50 C16.99,544.90 18.49,550.75 19.33,553.50 C20.17,556.25 21.40,560.53 22.05,563.00 C22.71,565.47 24.06,569.30 25.05,571.50 C26.05,573.70 27.15,576.85 27.51,578.50 C28.22,581.82 28.54,582.63 32.78,592.00 C34.40,595.58 36.28,600.22 36.96,602.33 C38.51,607.10 56.73,643.43 59.62,647.51 C60.78,649.15 62.06,651.53 62.45,652.78 C62.84,654.04 65.29,658.31 67.91,662.28 C79.47,679.84 82.00,683.81 82.00,684.39 C82.00,686.64 105.04,713.91 120.41,729.85 C128.82,738.57 152.69,760.14 159.03,764.75 C181.37,781.00 191.49,788.00 192.63,788.00 C193.01,788.00 194.79,789.12 196.59,790.50 C198.39,791.87 200.91,793.45 202.18,794.01 C204.60,795.07 211.69,799.07 216.00,801.81 C222.25,805.78 242.83,816.20 248.90,818.45 C262.69,823.59 272.79,827.22 274.50,827.65 C275.60,827.94 277.40,828.51 278.50,828.93 C281.56,830.10 293.89,833.72 299.50,835.09 C302.25,835.76 305.40,836.78 306.50,837.35 C307.60,837.93 309.40,838.53 310.50,838.68 C311.60,838.83 316.55,839.82 321.50,840.88 C339.28,844.70 347.64,846.20 356.00,847.06 C360.67,847.54 366.75,848.42 369.50,849.02 C380.35,851.38 384.59,852.00 386.64,851.52 C387.81,851.25 393.66,851.66 399.64,852.45 C408.59,853.63 435.73,853.89 554.04,853.97 C632.99,854.02 698.78,854.38 700.24,854.78 C706.35,856.44 732.06,881.49 745.19,898.59 C746.42,900.19 747.70,901.72 748.02,902.00 C748.35,902.28 751.20,905.56 754.35,909.31 C761.78,918.14 775.76,931.96 789.97,944.50 C796.20,950.00 802.24,955.42 803.40,956.54 C807.43,960.44 813.63,964.86 819.54,968.06 C822.82,969.83 826.40,972.04 827.50,972.99 C828.60,973.93 830.17,975.01 831.00,975.39 C832.71,976.17 834.46,977.25 841.45,981.79 ZM 992.70 695.22 C993.66,696.28 994.72,696.68 995.24,696.16 C996.27,695.13 990.28,683.58 985.35,677.11 C983.51,674.69 982.00,672.33 982.00,671.86 C982.00,671.39 981.37,671.00 980.61,671.00 C979.84,671.00 978.96,669.98 978.65,668.73 C978.33,667.48 977.26,665.57 976.26,664.48 C975.26,663.39 973.45,660.89 972.25,658.93 C969.73,654.83 959.37,644.46 953.50,640.18 C951.30,638.57 948.18,635.85 946.56,634.13 C944.95,632.41 943.13,631.00 942.53,631.00 C941.92,631.00 939.87,629.67 937.96,628.04 C932.39,623.28 931.56,624.56 936.69,630.00 C939.29,632.75 942.05,635.00 942.84,635.00 C945.47,635.00 950.79,639.01 951.40,641.45 C951.73,642.78 952.84,644.13 953.86,644.45 C954.87,644.78 956.90,646.38 958.36,648.02 C959.82,649.66 961.46,651.00 961.99,651.00 C962.53,651.00 963.60,652.49 964.36,654.31 C965.12,656.13 967.60,659.21 969.86,661.15 C974.20,664.86 979.95,672.61 979.98,674.77 C979.99,675.47 981.80,677.99 983.99,680.38 C986.19,682.76 988.68,686.66 989.52,689.05 C990.36,691.44 991.80,694.22 992.70,695.22 ZM 922.00 245.55 C922.00,247.49 923.00,247.35 926.00,245.00 C927.38,243.92 928.91,243.03 929.41,243.02 C929.90,243.01 931.71,241.94 933.41,240.64 C935.11,239.34 938.31,237.06 940.50,235.57 C945.83,231.97 955.66,223.16 964.39,214.17 C971.26,207.09 973.29,204.00 971.10,204.00 C969.90,204.00 956.67,217.20 953.15,221.91 C951.85,223.65 949.02,225.97 946.86,227.07 C944.69,228.18 941.14,230.86 938.96,233.04 C936.78,235.22 934.61,237.00 934.12,237.00 C933.64,237.00 932.63,237.75 931.87,238.66 C931.12,239.58 928.59,241.17 926.25,242.21 C923.91,243.25 922.00,244.75 922.00,245.55 ZM 896.00 1004.83 C898.47,1005.36 900.71,1005.83 900.96,1005.89 C901.22,1005.95 900.68,1005.25 899.77,1004.34 C897.74,1002.31 892.80,1000.41 883.29,998.00 C879.32,996.99 872.28,994.32 867.64,992.07 C858.27,987.51 850.00,984.71 850.00,986.10 C850.00,986.59 850.79,987.03 851.75,987.07 C852.71,987.11 854.85,988.01 856.50,989.06 C862.33,992.77 871.84,997.01 879.00,999.07 C881.47,999.78 885.30,1001.15 887.50,1002.12 C889.70,1003.09 893.53,1004.31 896.00,1004.83 ZM 1017.70 36.95 C1018.44,41.29 1018.49,41.34 1018.81,38.17 C1018.99,36.34 1018.66,33.46 1018.07,31.77 C1017.48,30.08 1017.00,27.26 1017.00,25.51 C1017.00,23.58 1016.21,21.59 1015.00,20.50 C1013.90,19.50 1013.00,18.11 1013.00,17.41 C1013.00,16.71 1011.00,14.50 1008.56,12.50 C1005.05,9.62 1003.44,8.94 1000.81,9.22 L 997.50 9.57 L 1001.75 11.39 C1004.09,12.40 1006.00,13.58 1006.00,14.03 C1006.00,14.48 1007.44,16.29 1009.21,18.05 C1012.76,21.61 1016.53,29.98 1017.70,36.95 ZM 996.00 166.31 C996.00,167.30 996.44,167.85 996.97,167.52 C998.14,166.79 1004.00,154.70 1004.00,153.00 C1004.00,152.34 1005.12,149.55 1006.50,146.81 C1007.88,144.08 1009.00,141.16 1009.00,140.33 C1009.00,137.84 1006.56,139.46 1005.63,142.58 C1005.15,144.19 1002.79,149.77 1000.38,155.00 C997.97,160.23 996.00,165.31 996.00,166.31 ZM 494.33 116.00 C494.24,117.38 493.78,120.04 493.31,121.91 L 492.45 125.33 L 489.73 122.09 C488.23,120.30 487.00,118.29 487.00,117.61 C487.00,115.11 489.61,112.81 492.06,113.16 C493.96,113.42 494.46,114.05 494.33,116.00 ZM 351.36 569.50 C351.05,570.33 350.23,571.00 349.55,571.00 C347.82,571.00 344.56,564.60 345.30,562.66 C346.13,560.49 350.65,559.46 352.52,561.02 C353.85,562.12 353.83,562.41 352.35,563.49 C351.36,564.21 350.93,565.38 351.31,566.36 C351.65,567.26 351.68,568.67 351.36,569.50 ZM 894.00 260.50 C894.00,261.19 898.65,259.57 900.96,258.09 C902.31,257.21 903.66,256.61 903.96,256.75 C904.86,257.15 911.00,254.89 911.00,254.15 C911.00,253.77 912.58,252.61 914.50,251.57 C917.81,249.79 919.10,248.00 917.07,248.00 C915.48,248.00 894.00,259.64 894.00,260.50 ZM 892.38 605.91 C895.94,606.95 899.00,607.23 899.00,606.52 C899.00,605.62 891.09,602.00 889.12,602.00 C888.05,602.00 887.01,601.54 886.83,600.98 C886.64,600.41 884.69,599.71 882.49,599.42 C878.56,598.89 878.54,598.90 881.00,600.41 C882.38,601.24 884.23,601.95 885.13,601.96 C886.02,601.98 887.32,602.68 888.00,603.50 C888.69,604.33 890.66,605.42 892.38,605.91 ZM 477.00 189.00 C477.00,196.33 476.61,201.00 476.00,201.00 C475.39,201.00 475.00,196.33 475.00,189.00 C475.00,181.67 475.39,177.00 476.00,177.00 C476.61,177.00 477.00,181.67 477.00,189.00 ZM 983.00 188.15 C983.00,190.43 985.23,188.51 987.53,184.25 C988.95,181.64 991.20,177.70 992.53,175.50 C993.87,173.30 994.96,171.05 994.96,170.50 C994.95,169.12 991.19,173.84 989.39,177.50 C988.58,179.15 986.81,182.03 985.46,183.90 C984.11,185.77 983.00,187.68 983.00,188.15 ZM 604.85 477.30 C609.90,477.02 619.65,477.00 638.91,477.00 L 677.74 477.00 L 680.22 484.25 C680.83,486.04 681.56,488.24 682.28,490.41 C681.98,489.92 681.63,489.43 681.25,488.98 C680.29,487.86 678.83,484.82 678.00,482.22 L 676.50 477.50 L 638.29 477.24 C619.41,477.11 609.83,477.06 604.85,477.30 ZM 663.49 440.02 C663.12,440.62 653.02,441.00 637.44,441.00 C615.78,441.00 612.00,440.78 612.00,439.54 C612.00,437.75 615.41,427.97 617.94,422.50 C619.64,418.82 620.60,416.64 622.04,412.72 C621.52,414.18 621.15,415.17 621.01,415.50 C620.53,416.60 619.67,419.08 619.10,421.00 C618.53,422.92 616.97,427.88 615.62,432.00 C613.39,438.83 613.32,439.56 614.83,440.18 C617.53,441.28 662.80,441.13 663.49,440.02 ZM 1006.35 721.55 C1006.98,722.24 1007.70,722.61 1007.93,722.38 C1008.17,722.15 1007.83,721.43 1007.18,720.78 C1006.53,720.13 1006.00,718.79 1006.00,717.80 C1006.00,716.81 1005.66,716.00 1005.25,716.00 C1004.84,716.00 1004.44,714.94 1004.36,713.64 C1004.29,712.34 1003.39,710.00 1002.37,708.44 C1000.90,706.19 1000.44,705.96 1000.18,707.30 C999.85,709.04 1004.29,719.31 1006.35,721.55 ZM 468.00 183.50 C468.00,189.17 467.60,193.00 467.00,193.00 C466.40,193.00 466.00,189.17 466.00,183.50 C466.00,177.83 466.40,174.00 467.00,174.00 C467.60,174.00 468.00,177.83 468.00,183.50 ZM 945.17 1014.12 C946.92,1015.23 960.28,1015.25 959.59,1014.15 C958.91,1013.04 947.56,1011.85 945.45,1012.66 C944.15,1013.16 944.10,1013.45 945.17,1014.12 ZM 458.00 84.58 C458.00,88.45 455.28,87.51 454.81,83.49 C454.58,81.55 454.71,79.46 455.10,78.84 C456.15,77.14 459.32,78.72 458.60,80.59 C458.27,81.46 458.00,83.25 458.00,84.58 ZM 1016.00 766.90 C1016.00,768.61 1016.28,770.00 1016.62,770.00 C1017.37,770.00 1016.13,756.07 1015.04,752.26 C1014.39,750.01 1014.12,749.81 1013.54,751.20 C1013.15,752.13 1013.54,755.35 1014.41,758.35 C1015.29,761.35 1016.00,765.20 1016.00,766.90 ZM 926.17 1012.12 C927.92,1013.24 939.27,1013.25 938.59,1012.14 C937.86,1010.96 929.90,1009.95 927.10,1010.68 C925.40,1011.13 925.17,1011.49 926.17,1012.12 ZM 917.00 9.00 C917.00,9.58 920.35,10.00 925.06,10.00 C930.18,10.00 932.89,9.64 932.50,9.00 C932.16,8.45 928.53,8.00 924.44,8.00 C920.15,8.00 917.00,8.42 917.00,9.00 ZM 912.00 614.00 C914.17,615.40 914.66,615.22 912.96,613.64 C910.33,611.19 903.04,607.63 902.26,608.41 C901.18,609.50 905.81,613.00 908.36,613.02 C909.54,613.02 911.17,613.47 912.00,614.00 ZM 854.75 593.76 C862.60,595.10 863.20,595.13 862.57,594.12 C861.60,592.55 849.00,590.37 849.00,591.78 C849.00,592.32 851.59,593.22 854.75,593.76 ZM 692.92 383.71 C690.43,377.17 688.25,371.90 687.50,371.00 C686.28,369.53 683.67,361.95 682.67,357.00 C682.50,356.15 681.72,353.76 680.67,350.82 C682.54,355.71 683.67,358.55 684.53,360.50 C685.25,362.15 687.65,368.67 689.86,375.00 C690.91,378.02 691.93,380.93 692.92,383.71 ZM 483.83 248.45 C484.30,252.47 482.39,253.96 480.92,250.72 C479.59,247.80 480.36,244.62 482.25,245.24 C482.94,245.47 483.65,246.91 483.83,248.45 ZM 871.25 597.88 C873.04,598.40 875.35,598.86 876.38,598.91 C877.99,598.99 877.89,598.70 875.73,597.00 C873.10,594.93 868.00,594.26 868.00,595.97 C868.00,596.51 869.46,597.37 871.25,597.88 ZM 710.57 431.66 C708.76,427.02 706.66,422.11 705.56,420.00 C704.27,417.52 702.89,413.92 702.50,412.00 C702.07,409.86 700.57,405.12 698.67,399.58 C701.40,406.95 703.30,411.68 703.82,412.32 C704.33,412.97 705.53,416.20 706.47,419.50 C707.36,422.60 708.47,425.94 710.57,431.66 ZM 906.67 1008.33 C907.03,1008.70 908.89,1009.00 910.79,1009.00 C913.75,1009.00 914.07,1008.78 913.00,1007.50 C912.32,1006.67 910.46,1006.00 908.88,1006.00 C906.12,1006.00 905.25,1006.92 906.67,1008.33 ZM 1014.01 996.83 C1014.01,997.57 1014.56,997.98 1015.25,997.76 C1016.71,997.28 1017.58,991.00 1016.18,991.00 C1015.25,991.00 1014.04,994.24 1014.01,996.83 ZM 380.19 587.25 C379.95,588.48 380.49,589.00 382.00,589.00 C383.51,589.00 384.05,588.48 383.81,587.25 C383.62,586.29 382.81,585.50 382.00,585.50 C381.19,585.50 380.38,586.29 380.19,587.25 ZM 925.98 622.48 C927.60,624.43 929.00,624.43 929.00,622.47 C929.00,620.86 926.34,619.33 925.31,620.35 C924.98,620.68 925.28,621.64 925.98,622.48 ZM 470.32 70.60 C469.35,73.14 468.00,72.06 468.03,68.75 C468.06,65.75 468.17,65.64 469.46,67.35 C470.23,68.36 470.62,69.83 470.32,70.60 ZM 997.99 702.98 C999.50,705.81 1000.44,704.87 999.56,701.40 C999.10,699.54 998.57,699.03 997.85,699.75 C997.14,700.46 997.18,701.46 997.99,702.98 ZM 976.00 197.00 C975.41,198.10 975.31,199.00 975.76,199.00 C976.83,199.00 979.00,196.85 979.00,195.80 C979.00,194.25 977.06,195.03 976.00,197.00 ZM 1010.64 129.49 C1011.27,131.15 1011.42,131.11 1012.19,129.02 C1013.15,126.41 1012.48,125.12 1010.95,126.65 C1010.39,127.21 1010.25,128.49 1010.64,129.49 ZM 1005.61 1008.57 C1005.19,1009.67 1005.51,1010.05 1006.67,1009.82 C1007.59,1009.65 1008.52,1008.94 1008.75,1008.25 C1009.36,1006.41 1006.32,1006.72 1005.61,1008.57 ZM 1015.07 111.81 C1015.13,114.21 1015.23,114.29 1016.00,112.50 C1017.19,109.72 1017.19,107.76 1016.00,108.50 C1015.45,108.84 1015.03,110.33 1015.07,111.81 ZM 1011.00 740.00 C1011.00,741.87 1011.27,742.13 1012.20,741.20 C1013.13,740.27 1013.13,739.73 1012.20,738.80 C1011.27,737.87 1011.00,738.13 1011.00,740.00 ZM 669.26 320.61 C669.17,320.50 669.08,320.39 668.98,320.29 C668.08,319.37 666.81,318.81 664.76,318.47 L 668.43 318.50 L 669.26 320.61 ZM 683.25 493.38 C683.75,494.94 684.21,496.37 684.56,497.50 C685.02,499.00 685.51,500.47 685.94,501.68 C684.94,499.02 683.73,495.31 683.25,493.38 ZM 633.73 378.61 C637.13,368.83 637.85,367.54 638.54,367.64 C639.07,367.72 640.65,371.10 642.06,375.14 C640.65,371.10 639.05,367.78 638.50,367.77 C637.77,367.76 637.07,369.02 633.73,378.61 ZM 612.32 318.00 L 608.97 318.00 L 608.98 317.97 L 612.32 318.00 Z" fill="rgba(21,175,230,1)"/>
<path d="M 537.08 511.60 C536.44,510.83 536.28,510.04 536.74,509.85 C537.19,509.66 539.93,502.98 542.84,495.00 C553.29,466.36 557.65,454.60 568.35,426.18 C572.56,415.00 576.00,405.44 576.00,404.92 C576.00,404.40 576.90,402.06 578.01,399.71 C579.11,397.36 580.41,394.10 580.88,392.47 C582.38,387.37 604.96,327.00 607.52,321.25 L 608.97 318.00 L 638.45 318.00 C660.07,318.00 666.23,317.48 668.98,320.29 C670.53,321.87 671.00,324.50 672.54,328.88 C673.83,332.52 676.52,339.77 678.53,345.00 C680.53,350.23 682.39,355.62 682.67,357.00 C683.67,361.95 686.28,369.53 687.50,371.00 C689.44,373.34 701.15,405.33 702.50,412.00 C702.89,413.92 704.27,417.52 705.56,420.00 C706.85,422.48 709.51,428.77 711.47,434.00 C713.43,439.23 715.89,445.75 716.95,448.50 C718.00,451.25 721.17,459.80 723.98,467.50 C726.80,475.20 729.96,483.75 731.01,486.50 C732.06,489.25 734.54,495.72 736.52,500.88 C738.49,506.05 739.88,510.88 739.59,511.63 C739.16,512.74 734.47,513.00 715.28,512.98 C702.20,512.98 690.97,512.63 690.33,512.22 C689.69,511.82 688.84,510.13 688.44,508.49 C688.05,506.85 687.43,505.05 687.07,504.50 C686.71,503.95 685.58,500.80 684.56,497.50 C683.53,494.20 681.58,488.24 680.22,484.25 L 677.74 477.00 L 638.91 477.00 C601.91,477.00 600.02,477.09 599.06,478.88 C598.51,479.92 595.79,487.41 593.02,495.54 C590.25,503.67 587.48,510.92 586.87,511.66 C585.20,513.67 538.75,513.61 537.08,511.60 ZM 841.45 981.79 C834.46,977.25 832.71,976.17 831.00,975.39 C830.17,975.01 828.60,973.93 827.50,972.99 C826.40,972.04 822.82,969.83 819.54,968.06 C813.63,964.86 807.43,960.44 803.40,956.54 C802.24,955.42 796.20,950.00 789.97,944.50 C775.76,931.96 761.78,918.14 754.35,909.31 C751.20,905.56 748.35,902.28 748.02,902.00 C747.70,901.72 746.42,900.19 745.19,898.59 C732.06,881.49 706.35,856.44 700.24,854.78 C698.78,854.38 632.99,854.02 554.04,853.97 C435.73,853.89 408.59,853.63 399.64,852.45 C393.66,851.66 387.81,851.25 386.64,851.52 C384.59,852.00 380.35,851.38 369.50,849.02 C366.75,848.42 360.67,847.54 356.00,847.06 C347.64,846.20 339.28,844.70 321.50,840.88 C316.55,839.82 311.60,838.83 310.50,838.68 C309.40,838.53 307.60,837.93 306.50,837.35 C305.40,836.78 302.25,835.76 299.50,835.09 C293.89,833.72 281.56,830.10 278.50,828.93 C277.40,828.51 275.60,827.94 274.50,827.65 C272.79,827.22 262.69,823.59 248.90,818.45 C242.83,816.20 222.25,805.78 216.00,801.81 C211.69,799.07 204.60,795.07 202.18,794.01 C200.91,793.45 198.39,791.87 196.59,790.50 C194.79,789.12 193.01,788.00 192.63,788.00 C191.49,788.00 181.37,781.00 159.03,764.75 C152.69,760.14 128.82,738.57 120.41,729.85 C105.04,713.91 82.00,686.64 82.00,684.39 C82.00,683.81 79.47,679.84 67.91,662.28 C65.29,658.31 62.84,654.04 62.45,652.78 C62.06,651.53 60.78,649.15 59.62,647.51 C56.73,643.43 38.51,607.10 36.96,602.33 C36.28,600.22 34.40,595.58 32.78,592.00 C28.54,582.63 28.22,581.82 27.51,578.50 C27.15,576.85 26.05,573.70 25.05,571.50 C24.06,569.30 22.71,565.47 22.05,563.00 C21.40,560.53 20.17,556.25 19.33,553.50 C18.49,550.75 16.99,544.90 16.00,540.50 C15.01,536.10 13.67,530.47 13.01,528.00 C12.36,525.53 11.47,520.80 11.04,517.50 C10.61,514.20 9.70,509.48 9.02,507.00 C8.33,504.52 7.41,498.00 6.96,492.50 C6.51,487.00 5.64,480.02 5.01,477.00 C3.06,467.54 3.91,397.35 6.08,389.00 C6.58,387.08 7.01,382.35 7.03,378.50 C7.07,370.58 10.70,344.48 12.93,336.00 C16.80,321.31 18.20,316.11 18.97,313.50 C20.36,308.73 28.19,285.80 29.54,282.50 C30.22,280.85 31.59,276.80 32.59,273.50 C34.59,266.89 34.83,266.29 37.80,260.50 C38.92,258.30 41.47,252.45 43.46,247.50 C45.44,242.55 48.33,236.70 49.87,234.50 C51.41,232.30 55.07,226.00 58.00,220.50 C60.93,215.00 66.11,206.21 69.51,200.97 C72.91,195.73 76.28,190.33 76.99,188.97 C77.71,187.61 80.03,184.41 82.15,181.86 C84.27,179.31 86.03,176.83 86.06,176.36 C86.22,173.86 109.56,146.36 124.45,131.13 C135.96,119.36 161.14,97.47 170.65,90.97 C176.57,86.92 188.20,78.91 193.92,74.95 C206.93,65.93 252.33,43.07 269.50,36.89 C272.80,35.71 275.95,34.41 276.50,34.02 C277.05,33.63 279.65,32.73 282.28,32.02 C284.90,31.31 287.29,30.34 287.58,29.86 C287.88,29.39 289.40,29.00 290.98,29.00 C292.55,29.00 295.81,28.15 298.22,27.12 C300.63,26.09 304.60,24.91 307.05,24.51 C309.50,24.10 312.35,23.32 313.40,22.77 C315.12,21.86 322.98,19.92 336.50,17.07 C349.67,14.28 360.45,12.64 370.50,11.89 C376.55,11.44 385.77,10.59 391.00,10.02 C414.07,7.47 442.48,7.12 591.00,7.56 C774.39,8.10 891.13,8.80 891.69,9.36 C892.26,9.93 817.04,10.90 725.50,11.51 C635.75,12.11 560.91,13.47 540.30,14.82 C548.09,14.20 565.34,13.50 582.50,13.13 C613.95,12.45 605.71,12.31 527.50,12.24 C475.46,12.19 430.29,12.58 423.50,13.13 C416.90,13.67 406.55,14.48 400.50,14.94 C371.56,17.11 341.65,21.10 337.25,23.37 C335.74,24.15 329.88,25.52 324.22,26.42 C318.57,27.32 311.69,28.94 308.94,30.02 C306.18,31.11 303.07,32.00 302.03,32.00 C300.99,32.00 299.45,32.70 298.59,33.55 C297.74,34.40 294.67,35.49 291.77,35.97 C285.61,36.98 274.21,41.44 265.00,46.43 C261.42,48.37 257.78,49.96 256.90,49.98 C256.02,49.99 253.18,51.12 250.60,52.50 C248.01,53.88 245.30,55.00 244.58,55.00 C243.86,55.00 241.58,56.35 239.50,58.00 C237.42,59.65 235.22,61.00 234.60,61.00 C233.98,61.00 230.50,62.74 226.86,64.86 C223.23,66.98 219.16,68.99 217.82,69.33 C216.48,69.67 213.83,71.08 211.94,72.47 C210.05,73.86 206.11,76.12 203.19,77.51 C197.65,80.14 193.23,82.97 189.00,86.61 C187.62,87.79 185.26,89.39 183.75,90.16 C180.93,91.59 171.66,98.99 162.61,107.04 C159.80,109.53 155.59,112.86 153.25,114.42 C146.71,118.81 113.51,152.09 111.22,156.55 C110.11,158.72 107.98,161.62 106.49,163.00 C105.00,164.38 102.25,167.75 100.37,170.50 C91.62,183.32 84.19,192.99 81.61,194.91 C80.57,195.68 77.76,200.50 75.37,205.61 C72.98,210.73 70.20,215.36 69.19,215.90 C68.18,216.44 66.80,218.74 66.12,221.00 C65.44,223.27 63.39,226.78 61.56,228.81 C59.49,231.12 57.99,234.04 57.56,236.62 C57.18,238.89 55.28,243.16 53.34,246.11 C49.72,251.61 44.00,263.41 44.00,265.39 C44.00,266.00 42.65,269.35 41.00,272.84 C39.35,276.33 38.00,280.08 38.00,281.17 C38.00,282.91 35.28,289.91 30.42,300.65 C29.64,302.38 29.00,304.43 29.00,305.20 C29.00,305.97 28.55,307.05 28.01,307.59 C27.46,308.14 26.62,310.59 26.14,313.04 C25.21,317.73 21.54,331.40 19.84,336.50 C17.93,342.21 15.14,360.60 12.33,386.00 C9.78,408.98 9.52,414.42 9.71,441.00 C9.90,466.36 10.22,471.90 11.99,480.50 C13.13,486.00 14.48,495.45 15.00,501.50 C15.65,509.03 16.88,515.23 18.89,521.17 C20.51,525.93 22.37,533.36 23.02,537.67 C23.66,541.98 25.50,549.44 27.10,554.26 C28.69,559.09 30.00,563.98 30.00,565.14 C30.00,566.30 31.73,570.71 33.85,574.94 C35.96,579.16 38.53,585.29 39.55,588.56 C40.57,591.83 42.18,595.85 43.13,597.50 C44.08,599.15 45.85,603.42 47.07,607.00 C48.28,610.58 50.56,615.28 52.14,617.45 C53.71,619.62 55.00,621.83 55.00,622.37 C55.00,622.90 55.77,624.19 56.71,625.23 C57.65,626.27 59.14,629.47 60.03,632.35 C60.92,635.22 63.92,640.93 66.68,645.04 C69.45,649.14 72.03,653.50 72.42,654.73 C72.80,655.95 74.63,658.76 76.48,660.98 C78.33,663.19 80.15,666.38 80.52,668.08 C80.89,669.77 83.41,673.48 86.13,676.33 C88.87,679.20 91.58,683.20 92.21,685.32 C93.00,687.95 94.83,690.28 98.08,692.82 C100.68,694.84 103.51,697.94 104.37,699.70 C105.22,701.46 107.09,703.67 108.51,704.60 C109.94,705.53 111.82,707.69 112.70,709.39 C114.89,713.63 147.02,745.20 154.78,750.74 C158.24,753.20 161.73,756.52 162.56,758.11 C163.46,759.86 164.85,761.00 166.09,761.00 C168.81,761.00 171.87,762.71 175.32,766.16 C176.88,767.72 178.71,769.00 179.39,769.00 C180.07,769.00 181.93,770.36 183.52,772.02 C185.10,773.67 188.11,775.49 190.20,776.05 C192.43,776.65 194.88,778.27 196.14,779.98 C197.32,781.57 199.68,783.43 201.39,784.10 C203.10,784.78 207.48,787.51 211.12,790.17 C214.76,792.83 218.27,795.00 218.91,795.00 C220.48,795.00 229.71,799.73 230.44,800.91 C230.76,801.43 232.71,802.39 234.76,803.05 C236.82,803.71 239.40,805.03 240.50,805.98 C241.60,806.94 243.98,808.22 245.80,808.83 C247.61,809.43 250.26,810.84 251.68,811.96 C253.51,813.40 255.75,814.00 259.31,814.00 C263.39,814.00 265.33,814.65 269.43,817.40 C272.27,819.31 276.92,821.30 280.00,821.93 C296.44,825.29 301.09,826.34 307.00,828.02 C310.58,829.03 315.98,830.42 319.00,831.09 C322.02,831.76 326.08,832.99 328.00,833.80 C332.58,835.75 349.99,839.13 357.10,839.44 C360.17,839.58 363.18,839.99 363.78,840.37 C364.38,840.74 370.64,841.50 377.69,842.07 C384.73,842.64 394.10,843.96 398.50,845.01 C405.60,846.69 408.80,846.82 427.00,846.20 C438.27,845.82 470.23,845.50 498.00,845.50 C525.78,845.50 580.11,845.37 618.75,845.21 C670.50,845.00 689.59,845.23 691.25,846.09 C695.72,848.39 685.52,838.78 676.00,831.71 C670.78,827.84 663.82,822.37 660.51,819.54 C663.82,822.37 670.78,827.84 676.00,831.71 C681.22,835.58 687.08,840.42 689.00,842.46 C690.92,844.49 695.86,847.74 699.96,849.67 C706.07,852.54 712.74,857.16 720.50,863.89 C721.05,864.36 724.29,868.07 727.70,872.13 C738.51,884.99 740.45,887.24 742.59,889.40 C744.70,891.52 754.34,902.83 763.50,913.91 C766.25,917.24 768.82,919.97 769.21,919.98 C769.59,919.99 772.75,922.81 776.22,926.25 C779.69,929.69 785.86,935.42 789.93,939.00 C794.00,942.58 798.99,947.19 801.01,949.25 C803.04,951.31 805.12,953.00 805.65,953.00 C806.17,953.00 809.05,955.18 812.05,957.85 C815.05,960.52 819.46,963.71 821.86,964.93 C824.26,966.16 826.44,967.98 826.71,968.98 C827.00,970.12 828.49,971.06 830.60,971.45 C832.51,971.81 834.66,973.07 835.47,974.32 C836.27,975.54 839.42,977.84 842.46,979.44 C845.51,981.03 848.00,982.93 848.00,983.67 C848.00,985.65 846.90,985.33 841.45,981.79 ZM 765.67 512.33 C765.30,511.97 765.00,468.09 765.00,414.83 L 765.00 318.00 L 816.00 318.00 L 816.00 414.30 C816.00,487.87 815.72,510.88 814.80,511.80 C813.50,513.10 766.94,513.61 765.67,512.33 ZM 528.62 268.10 C537.16,271.50 565.37,272.53 672.00,273.36 C814.51,274.47 829.24,274.40 841.50,272.55 C847.55,271.64 853.85,270.51 855.50,270.05 C871.35,265.57 881.51,263.98 880.80,266.09 C880.31,267.57 871.04,270.23 857.00,272.94 C851.78,273.94 845.70,275.37 843.50,276.12 C840.19,277.24 805.71,277.50 645.00,277.62 C497.95,277.74 448.18,278.07 441.00,279.00 C435.77,279.68 429.48,280.43 427.00,280.67 C424.52,280.91 421.60,281.49 420.50,281.97 C419.40,282.45 414.67,283.80 410.00,284.97 C405.33,286.15 401.07,287.54 400.55,288.06 C400.03,288.58 398.78,289.00 397.79,289.00 C396.79,289.00 395.19,289.42 394.24,289.94 C393.28,290.46 388.67,292.68 384.00,294.89 C364.99,303.84 338.94,324.92 326.56,341.38 C317.22,353.78 309.00,366.31 309.00,368.13 C309.00,369.09 308.55,370.16 308.00,370.50 C307.45,370.84 307.00,371.75 307.00,372.53 C307.00,373.31 305.93,376.32 304.61,379.22 C303.30,382.12 301.89,386.08 301.49,388.00 C301.09,389.92 300.06,392.85 299.21,394.50 C298.36,396.15 297.34,400.65 296.96,404.50 C296.58,408.35 295.50,414.20 294.56,417.50 C292.68,424.17 292.87,441.79 294.95,452.00 C295.56,455.02 296.48,460.33 297.00,463.78 C297.51,467.24 298.62,471.05 299.47,472.25 C300.31,473.46 301.00,475.41 301.00,476.58 C301.00,478.93 306.51,492.91 308.04,494.44 C308.57,494.97 309.00,496.04 309.00,496.82 C309.00,497.61 310.80,500.94 313.00,504.24 C315.20,507.53 317.00,510.44 317.00,510.71 C317.00,511.96 328.69,526.01 336.21,533.79 C349.09,547.12 357.24,553.54 373.50,563.15 C383.67,569.17 403.82,578.00 407.38,578.00 C408.22,578.00 409.94,578.40 411.20,578.90 C415.00,580.38 421.09,581.80 428.50,582.94 C436.77,584.21 663.24,584.65 745.00,583.56 C791.84,582.93 798.69,583.04 808.50,584.57 C814.55,585.51 821.53,586.36 824.00,586.47 C830.39,586.73 845.00,589.30 845.00,590.16 C845.00,590.56 844.51,591.18 843.92,591.55 C842.62,592.35 820.76,590.21 816.50,588.86 C813.33,587.86 711.48,587.63 655.50,588.50 C637.90,588.77 589.70,589.22 548.39,589.50 C476.61,589.97 467.83,590.25 465.46,592.09 C464.48,592.85 458.84,592.52 455.25,591.55 C460.97,592.76 464.52,592.82 465.86,591.70 C466.83,590.90 474.08,590.31 487.90,589.94 L 508.50 589.37 L 484.00 588.99 C470.52,588.77 451.62,588.55 442.00,588.48 C426.94,588.38 423.56,588.06 417.79,586.18 C414.10,584.98 409.77,584.00 408.18,584.00 C406.58,584.00 402.17,582.48 398.38,580.62 C390.86,576.92 385.42,575.25 386.48,576.96 C386.48,576.97 386.48,576.97 386.49,576.98 C385.18,576.42 383.98,576.05 383.15,576.01 C383.21,576.00 383.27,576.00 383.33,576.00 C384.96,576.00 384.65,575.59 381.96,574.15 C380.06,573.13 374.90,570.38 370.50,568.03 C366.10,565.68 361.03,562.47 359.24,560.90 C357.44,559.32 354.52,557.28 352.74,556.36 C346.41,553.09 335.73,543.25 321.50,527.56 C318.75,524.53 315.64,521.14 314.58,520.04 C311.90,517.24 308.74,511.87 304.09,502.23 C301.90,497.67 299.27,492.89 298.25,491.59 C297.23,490.29 295.34,485.91 294.05,481.86 C292.77,477.81 291.11,473.31 290.36,471.85 C289.61,470.39 289.00,466.56 289.00,463.34 C289.00,460.12 288.52,455.91 287.93,453.99 C287.34,452.07 286.82,443.27 286.79,434.44 C286.73,421.27 287.12,416.59 288.96,408.44 C292.75,391.59 293.77,387.69 295.86,382.00 C296.97,378.98 298.14,374.86 298.47,372.86 C298.81,370.74 301.05,366.54 303.87,362.78 C306.52,359.23 308.98,354.84 309.35,353.02 C309.71,351.20 311.83,347.64 314.07,345.11 C320.01,338.36 320.36,337.91 322.00,334.95 C324.09,331.18 343.15,313.27 346.39,312.04 C347.85,311.49 349.97,309.46 351.10,307.55 C353.30,303.83 357.08,301.15 366.20,296.83 C369.34,295.34 373.19,293.18 374.76,292.02 C377.95,289.66 395.75,282.79 406.50,279.76 C410.35,278.68 418.67,277.00 425.00,276.03 C451.24,272.00 457.14,271.78 523.93,272.26 C562.88,272.54 579.97,272.42 567.00,271.95 C544.56,271.15 533.49,270.04 528.62,268.10 ZM 663.49 440.02 C664.05,439.12 655.99,413.87 653.81,409.69 C653.29,408.69 652.69,406.96 652.47,405.85 C652.26,404.74 650.40,399.04 648.35,393.17 C646.30,387.30 643.47,379.19 642.06,375.14 C640.65,371.10 639.07,367.72 638.54,367.64 C637.54,367.49 636.51,370.24 627.46,397.00 C621.72,413.99 621.08,415.70 617.94,422.50 C615.41,427.97 612.00,437.75 612.00,439.54 C612.00,440.78 615.78,441.00 637.44,441.00 C653.02,441.00 663.12,440.62 663.49,440.02 ZM 992.70 695.22 C991.80,694.22 990.36,691.44 989.52,689.05 C988.68,686.66 986.19,682.76 983.99,680.38 C981.80,677.99 979.99,675.47 979.98,674.77 C979.95,672.61 974.20,664.86 969.86,661.15 C967.60,659.21 965.12,656.13 964.36,654.31 C963.60,652.49 962.53,651.00 961.99,651.00 C961.46,651.00 959.82,649.66 958.36,648.02 C956.90,646.38 954.87,644.78 953.86,644.45 C952.84,644.13 951.73,642.78 951.40,641.45 C950.79,639.01 945.47,635.00 942.84,635.00 C942.05,635.00 939.29,632.75 936.69,630.00 C931.56,624.56 932.39,623.28 937.96,628.04 C939.87,629.67 941.92,631.00 942.53,631.00 C943.13,631.00 944.95,632.41 946.56,634.13 C948.18,635.85 951.30,638.57 953.50,640.18 C959.37,644.46 969.73,654.83 972.25,658.93 C973.45,660.89 975.26,663.39 976.26,664.48 C977.26,665.57 978.33,667.48 978.65,668.73 C978.96,669.98 979.84,671.00 980.61,671.00 C981.37,671.00 982.00,671.39 982.00,671.86 C982.00,672.33 983.51,674.69 985.35,677.11 C990.28,683.58 996.27,695.13 995.24,696.16 C994.72,696.68 993.66,696.28 992.70,695.22 ZM 922.00 245.55 C922.00,244.75 923.91,243.25 926.25,242.21 C928.59,241.17 931.12,239.58 931.87,238.66 C932.63,237.75 933.64,237.00 934.12,237.00 C934.61,237.00 936.78,235.22 938.96,233.04 C941.14,230.86 944.69,228.18 946.86,227.07 C949.02,225.97 951.85,223.65 953.15,221.91 C956.67,217.20 969.90,204.00 971.10,204.00 C973.29,204.00 971.26,207.09 964.39,214.17 C955.66,223.16 945.83,231.97 940.50,235.57 C938.31,237.06 935.11,239.34 933.41,240.64 C931.71,241.94 929.90,243.01 929.41,243.02 C928.91,243.03 927.38,243.92 926.00,245.00 C923.00,247.35 922.00,247.49 922.00,245.55 ZM 896.00 1004.83 C893.53,1004.31 889.70,1003.09 887.50,1002.12 C885.30,1001.15 881.47,999.78 879.00,999.07 C871.84,997.01 862.33,992.77 856.50,989.06 C854.85,988.01 852.71,987.11 851.75,987.07 C850.79,987.03 850.00,986.59 850.00,986.10 C850.00,984.71 858.27,987.51 867.64,992.07 C872.28,994.32 879.32,996.99 883.29,998.00 C892.80,1000.41 897.74,1002.31 899.77,1004.34 C900.68,1005.25 901.22,1005.95 900.96,1005.89 C900.71,1005.83 898.47,1005.36 896.00,1004.83 ZM 1017.70 36.95 C1016.53,29.98 1012.76,21.61 1009.21,18.05 C1007.44,16.29 1006.00,14.48 1006.00,14.03 C1006.00,13.58 1004.09,12.40 1001.75,11.39 L 997.50 9.57 L 1000.81 9.22 C1003.44,8.94 1005.05,9.62 1008.56,12.50 C1011.00,14.50 1013.00,16.71 1013.00,17.41 C1013.00,18.11 1013.90,19.50 1015.00,20.50 C1016.21,21.59 1017.00,23.58 1017.00,25.51 C1017.00,27.26 1017.48,30.08 1018.07,31.77 C1018.66,33.46 1018.99,36.34 1018.81,38.17 C1018.49,41.34 1018.44,41.29 1017.70,36.95 ZM 996.00 166.31 C996.00,165.31 997.97,160.23 1000.38,155.00 C1002.79,149.77 1005.15,144.19 1005.63,142.58 C1006.56,139.46 1009.00,137.84 1009.00,140.33 C1009.00,141.16 1007.88,144.08 1006.50,146.81 C1005.12,149.55 1004.00,152.34 1004.00,153.00 C1004.00,154.70 998.14,166.79 996.97,167.52 C996.44,167.85 996.00,167.30 996.00,166.31 ZM 894.00 260.50 C894.00,259.64 915.48,248.00 917.07,248.00 C919.10,248.00 917.81,249.79 914.50,251.57 C912.58,252.61 911.00,253.77 911.00,254.15 C911.00,254.89 904.86,257.15 903.96,256.75 C903.66,256.61 902.31,257.21 900.96,258.09 C898.65,259.57 894.00,261.19 894.00,260.50 ZM 892.38 605.91 C890.66,605.42 888.69,604.33 888.00,603.50 C887.32,602.68 886.02,601.98 885.13,601.96 C884.23,601.95 882.38,601.24 881.00,600.41 C878.54,598.90 878.56,598.89 882.49,599.42 C884.69,599.71 886.64,600.41 886.83,600.98 C887.01,601.54 888.05,602.00 889.12,602.00 C891.09,602.00 899.00,605.62 899.00,606.52 C899.00,607.23 895.94,606.95 892.38,605.91 ZM 983.00 188.15 C983.00,187.68 984.11,185.77 985.46,183.90 C986.81,182.03 988.58,179.15 989.39,177.50 C991.19,173.84 994.95,169.12 994.96,170.50 C994.96,171.05 993.87,173.30 992.53,175.50 C991.20,177.70 988.95,181.64 987.53,184.25 C985.23,188.51 983.00,190.43 983.00,188.15 ZM 1006.35 721.55 C1004.29,719.31 999.85,709.04 1000.18,707.30 C1000.44,705.96 1000.90,706.19 1002.37,708.44 C1003.39,710.00 1004.29,712.34 1004.36,713.64 C1004.44,714.94 1004.84,716.00 1005.25,716.00 C1005.66,716.00 1006.00,716.81 1006.00,717.80 C1006.00,718.79 1006.53,720.13 1007.18,720.78 C1007.83,721.43 1008.17,722.15 1007.93,722.38 C1007.70,722.61 1006.98,722.24 1006.35,721.55 ZM 945.17 1014.12 C944.10,1013.45 944.15,1013.16 945.45,1012.66 C947.56,1011.85 958.91,1013.04 959.59,1014.15 C960.28,1015.25 946.92,1015.23 945.17,1014.12 ZM 1016.00 766.90 C1016.00,765.20 1015.29,761.35 1014.41,758.35 C1013.54,755.35 1013.15,752.13 1013.54,751.20 C1014.12,749.81 1014.39,750.01 1015.04,752.26 C1016.13,756.07 1017.37,770.00 1016.62,770.00 C1016.28,770.00 1016.00,768.61 1016.00,766.90 ZM 926.17 1012.12 C925.17,1011.49 925.40,1011.13 927.10,1010.68 C929.90,1009.95 937.86,1010.96 938.59,1012.14 C939.27,1013.25 927.92,1013.24 926.17,1012.12 ZM 917.00 9.00 C917.00,8.42 920.15,8.00 924.44,8.00 C928.53,8.00 932.16,8.45 932.50,9.00 C932.89,9.64 930.18,10.00 925.06,10.00 C920.35,10.00 917.00,9.58 917.00,9.00 ZM 912.00 614.00 C911.17,613.47 909.54,613.02 908.36,613.02 C905.81,613.00 901.18,609.50 902.26,608.41 C903.04,607.63 910.33,611.19 912.96,613.64 C914.66,615.22 914.17,615.40 912.00,614.00 ZM 854.75 593.76 C851.59,593.22 849.00,592.32 849.00,591.78 C849.00,590.37 861.60,592.55 862.57,594.12 C863.20,595.13 862.60,595.10 854.75,593.76 ZM 871.25 597.88 C869.46,597.37 868.00,596.51 868.00,595.97 C868.00,594.26 873.10,594.93 875.73,597.00 C877.89,598.70 877.99,598.99 876.38,598.91 C875.35,598.86 873.04,598.40 871.25,597.88 ZM 906.67 1008.33 C905.25,1006.92 906.12,1006.00 908.88,1006.00 C910.46,1006.00 912.32,1006.67 913.00,1007.50 C914.07,1008.78 913.75,1009.00 910.79,1009.00 C908.89,1009.00 907.03,1008.70 906.67,1008.33 ZM 1014.01 996.83 C1014.04,994.24 1015.25,991.00 1016.18,991.00 C1017.58,991.00 1016.71,997.28 1015.25,997.76 C1014.56,997.98 1014.01,997.57 1014.01,996.83 ZM 925.98 622.48 C925.28,621.64 924.98,620.68 925.31,620.35 C926.34,619.33 929.00,620.86 929.00,622.47 C929.00,624.43 927.60,624.43 925.98,622.48 ZM 997.99 702.98 C997.18,701.46 997.14,700.46 997.85,699.75 C998.57,699.03 999.10,699.54 999.56,701.40 C1000.44,704.87 999.50,705.81 997.99,702.98 ZM 976.00 197.00 C977.06,195.03 979.00,194.25 979.00,195.80 C979.00,196.85 976.83,199.00 975.76,199.00 C975.31,199.00 975.41,198.10 976.00,197.00 ZM 1010.64 129.49 C1010.25,128.49 1010.39,127.21 1010.95,126.65 C1012.48,125.12 1013.15,126.41 1012.19,129.02 C1011.42,131.11 1011.27,131.15 1010.64,129.49 ZM 1005.61 1008.57 C1006.32,1006.72 1009.36,1006.41 1008.75,1008.25 C1008.52,1008.94 1007.59,1009.65 1006.67,1009.82 C1005.51,1010.05 1005.19,1009.67 1005.61,1008.57 ZM 1015.07 111.81 C1015.03,110.33 1015.45,108.84 1016.00,108.50 C1017.19,107.76 1017.19,109.72 1016.00,112.50 C1015.23,114.29 1015.13,114.21 1015.07,111.81 ZM 1011.00 740.00 C1011.00,738.13 1011.27,737.87 1012.20,738.80 C1013.13,739.73 1013.13,740.27 1012.20,741.20 C1011.27,742.13 1011.00,741.87 1011.00,740.00 ZM 410.78 588.55 C412.83,589.41 418.45,590.47 423.28,590.92 C426.93,591.26 430.24,591.71 431.79,592.06 C423.10,591.29 414.12,589.95 410.78,588.55 ZM 532.11 15.74 C526.06,16.46 520.07,16.36 511.41,15.47 C519.57,16.31 525.43,16.41 532.11,15.74 ZM 388.69 578.04 C389.47,578.24 390.90,579.16 392.16,580.28 C391.19,579.51 389.96,578.72 388.69,578.04 ZM 393.19 581.19 C394.44,582.23 395.67,583.00 396.14,583.00 C396.72,583.00 398.33,583.90 399.73,585.00 C398.33,583.90 396.69,583.00 396.09,583.00 C395.50,583.00 394.20,582.19 393.19,581.19 ZM 448.29 592.66 C450.09,592.48 451.36,592.23 451.54,591.94 C451.74,591.61 452.32,591.40 453.04,591.33 C452.46,591.44 451.90,591.67 451.51,591.99 C451.10,592.33 449.96,592.54 448.29,592.66 Z" fill="rgba(36,94,157,1)"/>
<path d="M 398.50 845.01 C394.10,843.96 384.73,842.64 377.69,842.07 C370.64,841.50 364.38,840.74 363.78,840.37 C363.18,839.99 360.17,839.58 357.10,839.44 C349.99,839.13 332.58,835.75 328.00,833.80 C326.08,832.99 322.02,831.76 319.00,831.09 C315.98,830.42 310.58,829.03 307.00,828.02 C301.09,826.34 296.44,825.29 280.00,821.93 C276.92,821.30 272.27,819.31 269.43,817.40 C265.33,814.65 263.39,814.00 259.31,814.00 C255.75,814.00 253.51,813.40 251.68,811.96 C250.26,810.84 247.61,809.43 245.80,808.83 C243.98,808.22 241.60,806.94 240.50,805.98 C239.40,805.03 236.82,803.71 234.76,803.05 C232.71,802.39 230.76,801.43 230.44,800.91 C229.71,799.73 220.48,795.00 218.91,795.00 C218.27,795.00 214.76,792.83 211.12,790.17 C207.48,787.51 203.10,784.78 201.39,784.10 C199.68,783.43 197.32,781.57 196.14,779.98 C194.88,778.27 192.43,776.65 190.20,776.05 C188.11,775.49 185.10,773.67 183.52,772.02 C181.93,770.36 180.07,769.00 179.39,769.00 C178.71,769.00 176.88,767.72 175.32,766.16 C171.87,762.71 168.81,761.00 166.09,761.00 C164.85,761.00 163.46,759.86 162.56,758.11 C161.73,756.52 158.24,753.20 154.78,750.74 C147.02,745.20 114.89,713.63 112.70,709.39 C111.82,707.69 109.94,705.53 108.51,704.60 C107.09,703.67 105.22,701.46 104.37,699.70 C103.51,697.94 100.68,694.84 98.08,692.82 C94.83,690.28 93.00,687.95 92.21,685.32 C91.58,683.20 88.87,679.20 86.13,676.33 C83.41,673.48 80.89,669.77 80.52,668.08 C80.15,666.38 78.33,663.19 76.48,660.98 C74.63,658.76 72.80,655.95 72.42,654.73 C72.03,653.50 69.45,649.14 66.68,645.04 C63.92,640.93 60.92,635.22 60.03,632.35 C59.14,629.47 57.65,626.27 56.71,625.23 C55.77,624.19 55.00,622.90 55.00,622.37 C55.00,621.83 53.71,619.62 52.14,617.45 C50.56,615.28 48.28,610.58 47.07,607.00 C45.85,603.42 44.08,599.15 43.13,597.50 C42.18,595.85 40.57,591.83 39.55,588.56 C38.53,585.29 35.96,579.16 33.85,574.94 C31.73,570.71 30.00,566.30 30.00,565.14 C30.00,563.98 28.69,559.09 27.10,554.26 C25.50,549.44 23.66,541.98 23.02,537.67 C22.37,533.36 20.51,525.93 18.89,521.17 C16.88,515.23 15.65,509.03 15.00,501.50 C14.48,495.45 13.13,486.00 11.99,480.50 C10.22,471.90 9.90,466.36 9.71,441.00 C9.52,414.42 9.78,408.98 12.33,386.00 C15.14,360.60 17.93,342.21 19.84,336.50 C21.54,331.40 25.21,317.73 26.14,313.04 C26.62,310.59 27.46,308.14 28.01,307.59 C28.55,307.05 29.00,305.97 29.00,305.20 C29.00,304.43 29.64,302.38 30.42,300.65 C35.28,289.91 38.00,282.91 38.00,281.17 C38.00,280.08 39.35,276.33 41.00,272.84 C42.65,269.35 44.00,266.00 44.00,265.39 C44.00,263.41 49.72,251.61 53.34,246.11 C55.28,243.16 57.18,238.89 57.56,236.62 C57.99,234.04 59.49,231.12 61.56,228.81 C63.39,226.78 65.44,223.27 66.12,221.00 C66.80,218.74 68.18,216.44 69.19,215.90 C70.20,215.36 72.98,210.73 75.37,205.61 C77.76,200.50 80.57,195.68 81.61,194.91 C84.19,192.99 91.62,183.32 100.37,170.50 C102.25,167.75 105.00,164.38 106.49,163.00 C107.98,161.62 110.11,158.72 111.22,156.55 C113.51,152.09 146.71,118.81 153.25,114.42 C155.59,112.86 159.80,109.53 162.61,107.04 C171.66,98.99 180.93,91.59 183.75,90.16 C185.26,89.39 187.62,87.79 189.00,86.61 C193.23,82.97 197.65,80.14 203.19,77.51 C206.11,76.12 210.05,73.86 211.94,72.47 C213.83,71.08 216.48,69.67 217.82,69.33 C219.16,68.99 223.23,66.98 226.86,64.86 C230.50,62.74 233.98,61.00 234.60,61.00 C235.22,61.00 237.42,59.65 239.50,58.00 C241.58,56.35 243.86,55.00 244.58,55.00 C245.30,55.00 248.01,53.88 250.60,52.50 C253.18,51.12 256.02,49.99 256.90,49.98 C257.78,49.96 261.42,48.37 265.00,46.43 C274.21,41.44 285.61,36.98 291.77,35.97 C294.67,35.49 297.74,34.40 298.59,33.55 C299.45,32.70 300.99,32.00 302.03,32.00 C303.07,32.00 306.18,31.11 308.94,30.02 C311.69,28.94 318.57,27.32 324.22,26.42 C329.88,25.52 335.74,24.15 337.25,23.37 C341.65,21.10 371.56,17.11 400.50,14.94 C406.55,14.48 416.90,13.67 423.50,13.13 C430.29,12.58 475.46,12.19 527.50,12.24 C605.71,12.31 613.95,12.45 582.50,13.13 C562.15,13.57 541.67,14.48 537.00,15.15 C528.06,16.42 521.48,16.50 511.41,15.47 C505.43,14.85 497.00,16.26 497.00,17.87 C497.00,19.23 501.37,21.06 504.50,21.00 C506.15,20.97 510.99,20.70 515.26,20.39 C523.37,19.82 529.00,21.21 529.00,23.79 C529.00,25.83 521.01,28.95 515.75,28.98 C511.85,29.00 511.00,29.32 511.00,30.80 C511.00,31.79 511.49,33.09 512.08,33.68 C513.54,35.14 512.86,39.11 511.00,40.04 C510.17,40.45 508.20,41.30 506.61,41.94 L 503.71 43.09 L 506.33 45.82 C510.22,49.88 512.27,66.00 508.89,66.00 C508.40,66.00 507.84,65.89 507.65,65.75 C507.46,65.61 506.56,66.12 505.65,66.87 C504.33,67.97 504.00,70.12 504.00,77.57 C504.00,85.91 504.22,87.04 506.11,88.36 C507.40,89.27 509.45,89.64 511.40,89.32 C516.27,88.53 517.27,90.46 516.44,98.96 C515.82,105.24 515.41,106.28 512.87,108.09 C509.65,110.39 509.10,114.22 511.53,117.44 C513.79,120.43 513.33,124.35 510.43,126.88 C507.40,129.51 508.29,131.41 513.02,132.35 C515.38,132.83 516.00,133.47 516.00,135.48 C516.00,137.31 515.47,138.00 514.06,138.00 C511.20,138.00 510.55,139.85 512.61,142.12 C514.16,143.83 514.21,144.25 512.97,145.02 C512.12,145.55 511.15,145.55 510.62,145.02 C510.10,144.50 509.26,144.62 508.59,145.31 C507.76,146.17 507.59,154.39 507.97,175.00 L 508.50 203.50 L 511.00 203.85 C512.38,204.04 514.06,204.65 514.75,205.22 C516.40,206.58 516.28,210.89 514.50,214.00 C513.71,215.38 513.04,217.40 513.01,218.50 C512.98,219.60 512.13,221.58 511.12,222.89 C509.63,224.83 509.46,225.90 510.25,228.45 C510.78,230.20 512.18,232.04 513.36,232.56 C515.23,233.38 515.54,234.44 515.79,241.06 C516.06,248.30 515.95,248.76 513.04,251.80 C509.69,255.30 508.64,262.00 511.43,262.00 C512.25,262.00 513.00,263.18 513.18,264.75 C513.49,267.45 513.61,267.50 519.61,267.22 C522.97,267.07 527.02,267.46 528.61,268.10 C533.49,270.04 544.56,271.15 567.00,271.95 C579.97,272.42 562.88,272.54 523.93,272.26 C457.14,271.78 451.24,272.00 425.00,276.03 C418.67,277.00 410.35,278.68 406.50,279.76 C395.75,282.79 377.95,289.66 374.76,292.02 C373.19,293.18 369.34,295.34 366.20,296.83 C357.08,301.15 353.30,303.83 351.10,307.55 C349.97,309.46 347.85,311.49 346.39,312.04 C343.15,313.27 324.09,331.18 322.00,334.95 C320.36,337.91 320.01,338.36 314.07,345.11 C311.83,347.64 309.71,351.20 309.35,353.02 C308.98,354.84 306.52,359.23 303.87,362.78 C301.05,366.54 298.81,370.74 298.47,372.86 C298.14,374.86 296.97,378.98 295.86,382.00 C293.77,387.69 292.75,391.59 288.96,408.44 C287.12,416.59 286.73,421.27 286.79,434.44 C286.82,443.27 287.34,452.07 287.93,453.99 C288.52,455.91 289.00,460.12 289.00,463.34 C289.00,466.56 289.61,470.39 290.36,471.85 C291.11,473.31 292.77,477.81 294.05,481.86 C295.34,485.91 297.23,490.29 298.25,491.59 C299.27,492.89 301.90,497.67 304.09,502.23 C308.74,511.87 311.90,517.24 314.58,520.04 C315.64,521.14 318.75,524.53 321.50,527.56 C335.73,543.25 346.41,553.09 352.74,556.36 C354.52,557.28 357.44,559.32 359.24,560.90 C361.03,562.47 366.10,565.68 370.50,568.03 C374.90,570.38 380.06,573.13 381.96,574.15 C384.65,575.59 384.96,576.00 383.33,576.00 C382.18,576.00 380.70,576.66 380.03,577.46 C377.70,580.27 375.02,580.32 372.49,577.59 C368.52,573.30 361.00,575.04 361.00,580.25 C361.00,581.12 360.56,581.98 360.03,582.17 C358.68,582.63 361.70,593.77 364.09,597.12 C365.14,598.60 366.00,600.51 366.00,601.37 C366.00,602.22 367.01,603.86 368.24,605.01 C370.02,606.66 371.31,606.98 374.49,606.54 C377.49,606.13 377.96,606.23 376.35,606.93 C375.17,607.44 373.91,608.34 373.54,608.93 C373.18,609.52 372.01,610.00 370.94,610.00 C368.43,610.00 368.42,611.62 370.93,612.27 C372.18,612.60 373.26,614.27 374.01,617.02 C375.27,621.72 377.04,625.00 378.31,625.00 C378.76,625.00 378.84,624.08 378.48,622.95 C377.79,620.76 379.64,617.66 381.11,618.57 C381.60,618.87 382.00,620.16 382.00,621.44 C382.00,622.71 382.67,624.32 383.50,625.00 C384.33,625.68 385.00,627.03 385.00,627.98 C385.00,628.94 386.35,631.42 388.00,633.50 C389.65,635.58 391.00,637.93 391.00,638.72 C391.00,639.52 395.03,644.17 399.95,649.06 C404.88,653.95 409.36,658.81 409.93,659.86 C410.49,660.91 413.40,663.40 416.40,665.39 C419.41,667.38 423.19,670.25 424.82,671.76 C426.45,673.27 429.64,675.85 431.91,677.50 C434.18,679.15 438.16,682.19 440.75,684.25 C443.34,686.31 446.40,688.00 447.54,688.00 C448.70,688.00 450.62,689.34 451.85,691.01 C453.07,692.67 455.96,695.25 458.26,696.76 C460.57,698.27 463.74,700.96 465.33,702.75 C466.91,704.54 468.72,706.00 469.35,706.00 C469.98,706.00 471.79,707.11 473.37,708.47 C474.95,709.83 477.20,711.24 478.37,711.60 C479.54,711.97 481.62,713.04 483.00,713.99 C486.41,716.35 502.98,725.00 504.08,725.00 C504.57,725.00 507.34,726.46 510.23,728.24 C513.13,730.03 516.73,732.17 518.23,732.99 C542.76,746.50 566.39,759.29 569.09,760.52 C570.96,761.37 574.97,763.64 578.00,765.56 C581.03,767.48 584.53,769.48 585.79,770.01 C587.05,770.55 590.65,772.72 593.79,774.85 C596.93,776.97 601.08,779.51 603.00,780.48 C608.23,783.13 618.60,789.89 641.00,805.26 C645.67,808.47 650.62,811.84 652.00,812.74 C653.38,813.65 657.20,816.71 660.50,819.53 C663.80,822.36 670.78,827.84 676.00,831.71 C685.52,838.78 695.72,848.39 691.25,846.09 C689.59,845.23 670.50,845.00 618.75,845.21 C580.11,845.37 525.78,845.50 498.00,845.50 C470.23,845.50 438.27,845.82 427.00,846.20 C408.80,846.82 405.60,846.69 398.50,845.01 ZM 351.36 569.50 C351.68,568.67 351.65,567.26 351.31,566.36 C350.93,565.38 351.36,564.21 352.35,563.49 C353.83,562.41 353.85,562.12 352.52,561.02 C350.65,559.46 346.13,560.49 345.30,562.66 C344.56,564.60 347.82,571.00 349.55,571.00 C350.23,571.00 351.05,570.33 351.36,569.50 ZM 483.83 248.45 C483.65,246.91 482.94,245.47 482.25,245.24 C480.36,244.62 479.59,247.80 480.92,250.72 C482.39,253.96 484.30,252.47 483.83,248.45 ZM 477.00 189.00 C477.00,181.67 476.61,177.00 476.00,177.00 C475.39,177.00 475.00,181.67 475.00,189.00 C475.00,196.33 475.39,201.00 476.00,201.00 C476.61,201.00 477.00,196.33 477.00,189.00 ZM 468.00 183.50 C468.00,177.83 467.60,174.00 467.00,174.00 C466.40,174.00 466.00,177.83 466.00,183.50 C466.00,189.17 466.40,193.00 467.00,193.00 C467.60,193.00 468.00,189.17 468.00,183.50 ZM 494.33 116.00 C494.46,114.05 493.96,113.42 492.06,113.16 C489.61,112.81 487.00,115.11 487.00,117.61 C487.00,118.29 488.23,120.30 489.73,122.09 L 492.45 125.33 L 493.31 121.91 C493.78,120.04 494.24,117.38 494.33,116.00 ZM 458.00 84.58 C458.00,83.25 458.27,81.46 458.60,80.59 C459.32,78.72 456.15,77.14 455.10,78.84 C454.71,79.46 454.58,81.55 454.81,83.49 C455.28,87.51 458.00,88.45 458.00,84.58 ZM 470.32 70.60 C470.62,69.83 470.23,68.36 469.46,67.35 C468.17,65.64 468.06,65.75 468.03,68.75 C468.00,72.06 469.35,73.14 470.32,70.60 ZM 432.70 592.37 C432.35,592.02 428.11,591.37 423.28,590.92 C418.45,590.47 412.83,589.41 410.78,588.55 C408.74,587.70 405.99,587.00 404.67,587.00 C403.35,587.00 401.13,586.10 399.73,585.00 C398.33,583.90 396.72,583.00 396.14,583.00 C395.57,583.00 393.89,581.88 392.41,580.50 C390.92,579.12 389.13,578.00 388.41,578.00 C387.70,578.00 386.83,577.53 386.48,576.96 C385.42,575.25 390.86,576.92 398.38,580.62 C402.17,582.48 406.58,584.00 408.18,584.00 C409.77,584.00 414.10,584.98 417.79,586.18 C423.56,588.06 426.94,588.38 442.00,588.48 C451.62,588.55 470.52,588.77 484.00,588.99 L 508.50 589.37 L 487.90 589.94 C474.08,590.31 466.83,590.90 465.86,591.70 C464.49,592.84 460.81,592.76 454.85,591.46 C453.39,591.14 451.90,591.36 451.54,591.94 C450.84,593.07 433.79,593.46 432.70,592.37 ZM 380.19 587.25 C380.38,586.29 381.19,585.50 382.00,585.50 C382.81,585.50 383.62,586.29 383.81,587.25 C384.05,588.48 383.51,589.00 382.00,589.00 C380.49,589.00 379.95,588.48 380.19,587.25 Z" fill="rgba(24,103,224,1)"/>
</g>
</svg>